<?xml version="1.0" encoding="utf-8"?>
<!-- Generator: Adobe Illustrator 25.4.1, SVG Export Plug-In . SVG Version: 6.00 Build 0)  -->
<svg version="1.1" id="Слой_1" xmlns="http://www.w3.org/2000/svg" xmlns:xlink="http://www.w3.org/1999/xlink" x="0px" y="0px"
	 viewBox="0 0 95 80" style="enable-background:new 0 0 95 80;" xml:space="preserve">
<style type="text/css">
	.st0{fill:none;stroke:#B3B3B3;stroke-width:8;stroke-miterlimit:10;}
	.st1{fill:none;stroke:#FFFFFF;stroke-width:8;stroke-miterlimit:10;}
	.st2{fill:none;stroke:#B3B3B3;stroke-width:5;stroke-miterlimit:10;}
	.st3{fill:none;stroke:#FFFFFF;stroke-width:5;stroke-miterlimit:10;}
</style>
<g>
	<line class="st0" x1="27" y1="7" x2="67" y2="7"/>
	<line class="st0" x1="27" y1="71" x2="67" y2="71"/>
	<line class="st0" x1="84" y1="59" x2="84" y2="19"/>
	<line class="st0" x1="10" y1="59" x2="10" y2="19"/>
	<line class="st0" x1="14" y1="15" x2="27" y2="15"/>
	<line class="st0" x1="14" y1="63" x2="27" y2="63"/>
	<line class="st0" x1="67" y1="63" x2="80" y2="63"/>
	<line class="st0" x1="67" y1="15" x2="80" y2="15"/>
</g>
<g>
	<line class="st1" x1="21" y1="7" x2="61" y2="7"/>
	<line class="st1" x1="21" y1="71" x2="61" y2="71"/>
	<line class="st1" x1="78" y1="59" x2="78" y2="19"/>
	<line class="st1" x1="4" y1="59" x2="4" y2="19"/>
	<line class="st1" x1="8" y1="15" x2="21" y2="15"/>
	<line class="st1" x1="8" y1="63" x2="21" y2="63"/>
	<line class="st1" x1="61" y1="63" x2="74" y2="63"/>
	<line class="st1" x1="61" y1="15" x2="74" y2="15"/>
</g>
<g>
	<line class="st2" x1="52" y1="25.5" x2="37" y2="25.5"/>
	<line class="st2" x1="34.5" y1="28" x2="34.5" y2="42.5"/>
	<line class="st2" x1="54.5" y1="28" x2="54.5" y2="42.5"/>
	<line class="st2" x1="39.8" y1="43" x2="39.8" y2="48.5"/>
	<line class="st2" x1="49.8" y1="43" x2="49.8" y2="48.5"/>
	<line class="st2" x1="34.8" y1="48.5" x2="34.8" y2="54"/>
	<line class="st2" x1="54.8" y1="48.5" x2="54.8" y2="54"/>
	<line class="st2" x1="29.8" y1="53.5" x2="29.8" y2="59"/>
	<line class="st2" x1="59.8" y1="53.5" x2="59.8" y2="59"/>
</g>
<g>
	<line class="st3" x1="49" y1="25.5" x2="34" y2="25.5"/>
	<line class="st3" x1="31.5" y1="28" x2="31.5" y2="42.5"/>
	<line class="st3" x1="51.5" y1="28" x2="51.5" y2="42.5"/>
	<line class="st3" x1="36.8" y1="43" x2="36.8" y2="48.5"/>
	<line class="st3" x1="46.8" y1="43" x2="46.8" y2="48.5"/>
	<line class="st3" x1="31.8" y1="48.5" x2="31.8" y2="54"/>
	<line class="st3" x1="51.8" y1="48.5" x2="51.8" y2="54"/>
	<line class="st3" x1="26.8" y1="53.5" x2="26.8" y2="59"/>
	<line class="st3" x1="56.8" y1="53.5" x2="56.8" y2="59"/>
</g>
</svg>
